<mxfile host="app.diagrams.net" modified="2024-01-31T01:56:27.323Z" agent="Mozilla/5.0 (Windows NT 10.0; Win64; x64) AppleWebKit/537.36 (KHTML, like Gecko) Chrome/121.0.0.0 Safari/537.36 Edg/121.0.0.0" version="23.0.2" etag="hg9kT12U1lBY6jDsdjln" type="github">
  <diagram name="페이지-1" id="Dkw4PtPYZ7k5fjB_yB8z">
    <mxGraphModel>
      <root>
        <mxCell id="0" />
        <mxCell id="1" parent="0" />
      </root>
    </mxGraphModel>
  </diagram>
</mxfile>
